<svg width="200" height="200" preserveAspectRatio="none" xmlns="http://www.w3.org/2000/svg" class="h-auto max-w-full"><defs><linearGradient x1="50%" y1="0%" x2="50%" y2="100%" id="a"><stop stop-color="#0F0840" offset="0%"/><stop stop-color="#080422" offset="100%"/></linearGradient></defs><g aria-hidden="true"><path fill="url(#a)" d="M0 0h200v200H0z"/><text transform="rotate(-8 75 1072.55) scale(1.5)" fill="#2C2D81" font-family="Inconsolata-dz-ep, Inconsolata-Regular, Inconsolata, monospace" font-size="16"><tspan x="100" y="0">function objectHasKey&lt;K extends string&gt;(</tspan><tspan x="100" y="24">  obj: unknown,</tspan><tspan x="100" y="48">  key: K</tspan><tspan x="100" y="72">): obj is {[k in K]: unknown} {</tspan><tspan x="100" y="96">  return typeof obj === &apos;object&apos; &amp;&amp; obj !== null &amp;&amp; key in obj;</tspan><tspan x="100" y="120">}</tspan><tspan x="100" y="168">const obj = {username: &apos;Amir&apos;} as unknown;</tspan><tspan x="100" y="192">objectHasKey(obj, &apos;username&apos;) ? obj.username : obj.username;</tspan></text><path d="M57.847 100.485v42.5h85v-85h-85v42.5zm68.415-3.152c2.124.536 3.743 1.487 5.229 3.042.77.83 1.91 2.344 2.004 2.706.026.107-3.61 2.573-5.813 3.953-.08.054-.398-.295-.756-.83-1.075-1.582-2.203-2.265-3.928-2.386-2.535-.174-4.167 1.166-4.154 3.404 0 .656.093 1.045.358 1.58.558 1.167 1.593 1.863 4.844 3.284 5.985 2.6 8.546 4.314 10.139 6.753 1.778 2.72 2.176 7.061.969 10.29-1.327 3.511-4.619 5.896-9.25 6.687-1.433.255-4.83.214-6.37-.067-3.357-.603-6.542-2.278-8.506-4.475-.77-.858-2.27-3.096-2.177-3.257.04-.053.385-.267.77-.495a748.62 748.62 0 0 0 3.105-1.81l2.402-1.406.505.75c.703 1.086 2.242 2.573 3.171 3.069 2.668 1.42 6.33 1.219 8.135-.416.77-.71 1.088-1.447 1.088-2.532 0-.978-.12-1.407-.623-2.144-.65-.938-1.978-1.729-5.747-3.377-4.313-1.876-6.17-3.041-7.869-4.89-.982-1.072-1.911-2.788-2.296-4.221-.318-1.193-.398-4.18-.146-5.387.89-4.207 4.034-7.142 8.573-8.013 1.473-.281 4.897-.174 6.343.188zm-19.442 3.125.027 3.442h-11.08v31.085h-7.839V103.9h-11.08v-3.376c0-1.867.04-3.428.094-3.468.04-.054 6.784-.08 14.96-.067l14.878.04.04 3.429z" fill="#FFF"/></g></svg>