<svg width="200" height="200" preserveAspectRatio="none" xmlns="http://www.w3.org/2000/svg" class="h-auto max-w-full"><defs><linearGradient x1="50%" y1="0%" x2="50%" y2="100%" id="a"><stop stop-color="#0F0840" offset="0%"/><stop stop-color="#080422" offset="100%"/></linearGradient></defs><g aria-hidden="true"><path fill="url(#a)" d="M0 0h200v200H0z"/><text transform="rotate(-8 75 1072.55) scale(1.5)" fill="#2C2D81" font-family="Inconsolata-dz-ep, Inconsolata-Regular, Inconsolata, monospace" font-size="16"><tspan x="100" y="0">edgesArray.filter(</tspan><tspan x="100" y="24">  ([parent, child]) =&gt; !this.transitiveDepExists(parent, child))</tspan><tspan x="100" y="72">this.nodesArray.forEach(node =&gt; {</tspan><tspan x="100" y="96">  childMap.set(node, new Set([]))</tspan><tspan x="100" y="120">})</tspan><tspan x="100" y="168">props.steps.slice(0, props.index + 1)</tspan></text><path d="M87.071 61c.405 0 .73.123.976.369s.369.571.369.976v6.465c0 .405-.116.73-.347.976-.231.246-.564.37-.998.37H69.585v59.443h17.486c.405 0 .73.123.976.369.246.245.369.57.369.976v6.508c0 .405-.116.723-.347.955-.231.231-.564.347-.998.347h-27.77c-.375 0-.686-.116-.932-.347-.246-.232-.369-.55-.369-.955V62.345c0-.405.123-.73.369-.976s.557-.369.933-.369H87.07zm26.815 0h27.769c.376 0 .694.123.954.369s.391.571.391.976v75.107c0 .405-.123.723-.369.955-.246.231-.571.347-.976.347h-27.77c-.404 0-.723-.116-.954-.347-.231-.232-.347-.55-.347-.955v-6.508c0-.405.116-.73.347-.976.231-.246.55-.37.955-.37h17.529V70.156h-17.53c-.404 0-.723-.116-.954-.347-.231-.231-.347-.564-.347-.998v-6.465c0-.405.116-.73.347-.976.231-.246.55-.369.955-.369z" fill="#FFF"/></g></svg>