<svg width="200" height="200" preserveAspectRatio="none" xmlns="http://www.w3.org/2000/svg" class="h-auto max-w-full"><defs><linearGradient x1="50%" y1="0%" x2="50%" y2="100%" id="a"><stop stop-color="#0F0840" offset="0%"/><stop stop-color="#080422" offset="100%"/></linearGradient></defs><g aria-hidden="true"><path fill="url(#a)" d="M0 0h200v200H0z"/><text transform="rotate(-8 75 1072.55) scale(1.5)" fill="#2C2D81" font-family="Inconsolata-dz-ep, Inconsolata-Regular, Inconsolata, monospace" font-size="16"><tspan x="100" y="0">Promise.all([</tspan><tspan x="100" y="24">  new Promise((resolve, reject) =&gt; resolve(1)),</tspan><tspan x="100" y="48">  new Promise((resolve, reject) =&gt; reject(new Error(&apos;oh no&apos;))),</tspan><tspan x="100" y="72">])</tspan><tspan x="100" y="120">waitForAll([</tspan><tspan x="100" y="144">  getUser(1),</tspan><tspan x="100" y="168">  getUser(2),</tspan><tspan x="100" y="192">]).then(users =&gt; users.map(user =&gt; user.name))</tspan><tspan x="100" y="240">const array = []</tspan><tspan x="100" y="264">array.push(&apos;before&apos;)</tspan><tspan x="100" y="312">Promise.resolve().then(() =&gt; {</tspan><tspan x="100" y="336">  array.push(&apos;then&apos;)</tspan><tspan x="100" y="360">})</tspan></text><path d="m55.953 147.583-9.54 9.54a2.5 2.5 0 0 1-3.649-3.415l.113-.12 9.54-9.54a15.102 15.102 0 0 0 3.536 3.535zm15.763-19.299c3.905 3.906 3.905 10.237 0 14.142-3.906 3.906-10.237 3.906-14.142 0-3.906-3.905-3.906-10.236 0-14.142 3.905-3.905 10.236-3.905 14.142 0zm-15.014-5.658-.025.016a15.048 15.048 0 0 0-3.708 3.294c-9.122-12.002-11.476-22.117-6.635-30.143a15.008 15.008 0 0 0 3.99 3.201c-3.059 5.985-1.05 13.808 6.378 23.632zm75.118 2.123a15.106 15.106 0 0 0 1.858 1.58c-22.038 20.825-41.677 27.52-58.472 19.679l.045-.046a14.976 14.976 0 0 0 2.935-4.144c14.63 6.232 31.816.012 51.974-19.038a15.11 15.11 0 0 0 1.66 1.969zm-40.512-12.521-14.435 14.435a15.101 15.101 0 0 0-3.536-3.535l14.436-14.435a15.101 15.101 0 0 0 3.535 3.535zM64.645 78.787c3.905 3.905 3.905 10.237 0 14.142-3.906 3.905-10.237 3.905-14.142 0-3.906-3.905-3.906-10.237 0-14.142 3.905-3.905 10.236-3.905 14.142 0zm42.426 14.142c3.905 3.905 3.905 10.237 0 14.142-3.905 3.905-10.237 3.905-14.142 0-3.905-3.905-3.905-10.237 0-14.142 3.905-3.905 10.237-3.905 14.142 0zM87.626 55.806a2.5 2.5 0 0 1 .112 3.415l-.112.12L69.8 77.166a15.101 15.101 0 0 0-3.535-3.535L84.09 55.806a2.5 2.5 0 0 1 3.536 0zm61.871 51.265c3.906 3.905 3.906 10.237 0 14.142-3.905 3.905-10.236 3.905-14.142 0-3.905-3.905-3.905-10.237 0-14.142 3.906-3.905 10.237-3.905 14.142 0zm-22.834-30.198-14.435 14.435a15.101 15.101 0 0 0-3.535-3.535l14.435-14.436a15.101 15.101 0 0 0 3.535 3.536zm-24.895-35.21a2.5 2.5 0 0 1 .112 3.416l-.112.12-7.071 7.071a2.5 2.5 0 0 1-3.648-3.415l.112-.12 7.071-7.071a2.5 2.5 0 0 1 3.536 0zm61.518 51.62a2.5 2.5 0 0 1 .113 3.415l-.113.12-8.632 8.632a15.101 15.101 0 0 0-3.535-3.535l8.632-8.633a2.5 2.5 0 0 1 3.535 0zm-20.86-35.71c3.906 3.906 3.906 10.237 0 14.143-3.905 3.905-10.236 3.905-14.142 0-3.905-3.906-3.905-10.237 0-14.142 3.906-3.906 10.237-3.906 14.142 0zm-30.052-26.516a2.5 2.5 0 0 1 .113 3.416l-.113.12-2.121 2.12a2.5 2.5 0 0 1-3.648-3.415l.113-.12 2.12-2.12a2.5 2.5 0 0 1 3.536 0z" fill="#FFF"/></g></svg>