<svg width="200" height="200" preserveAspectRatio="none" xmlns="http://www.w3.org/2000/svg" class="h-auto max-w-full"><defs><linearGradient x1="50%" y1="0%" x2="50%" y2="100%" id="a"><stop stop-color="#0F0840" offset="0%"/><stop stop-color="#080422" offset="100%"/></linearGradient></defs><g aria-hidden="true"><path fill="url(#a)" d="M0 0h200v200H0z"/><text transform="rotate(-8 75 1072.55) scale(1.5)" fill="#2C2D81" font-family="Inconsolata-dz-ep, Inconsolata-Regular, Inconsolata, monospace" font-size="16"><tspan x="100" y="0">for (const root of this.nodes) {</tspan><tspan x="100" y="24">  this.ensureNodeIsntCircular(root)</tspan><tspan x="100" y="48">}</tspan><tspan x="100" y="96">function multiplyArrays(...numbers1, ...numbers2) {</tspan><tspan x="100" y="120">  const result = []</tspan><tspan x="100" y="144">  for (let i = 0; i &lt; numbers1.length; i++) {</tspan><tspan x="100" y="168">    result.push(numbers1[i] * numbers2[i])</tspan><tspan x="100" y="192">  }</tspan><tspan x="100" y="216">  return result</tspan><tspan x="100" y="240">}</tspan></text><path d="M117 44v14h26v85H58V70H43V44h74zm5.688 52.567c-7.132 0-11.697 4.564-11.697 10.555 0 6.505 3.823 9.586 9.586 12.039l1.997.856c3.652 1.598 5.82 2.568 5.82 5.306 0 2.283-2.11 3.937-5.42 3.937-3.937 0-6.163-2.053-7.875-4.85l-6.504 3.766c2.34 4.622 7.132 8.16 14.55 8.16 7.588 0 13.237-3.937 13.237-11.127 0-6.675-3.823-9.642-10.613-12.552l-1.997-.856c-3.423-1.483-4.907-2.454-4.907-4.85 0-1.94 1.484-3.423 3.823-3.423 2.283 0 3.766.97 5.135 3.423l6.22-3.994c-2.625-4.622-6.277-6.39-11.355-6.39zm-18.432.456H96.27v27.16c0 3.993-1.655 5.02-4.28 5.02-2.738 0-3.88-1.882-5.135-4.107l-6.505 3.936.116.238c1.917 3.886 5.604 7.065 11.867 7.065 7.075 0 11.924-3.766 11.924-12.04V97.024zM114 47H46v20h68V47zm-48.952 4.776c2.368 0 3.776 1.936 3.776 5.216 0 3.328-1.408 5.296-3.776 5.296s-3.776-1.968-3.776-5.296c0-3.28 1.408-5.216 3.776-5.216zm-6.432.24V62H57v-7.232l-1.392 3.76h-1.184l-1.344-3.76V62h-1.6v-9.968h1.888l1.68 4.688 1.664-4.704h1.904zm15.664.016c1.776 0 2.64.496 3.312 1.392.672.912 1.024 2.144 1.024 3.664 0 3.024-1.312 4.912-4.528 4.912h-2.384v-9.968zm14.112 0v1.536H83.64v2.464h3.936V57.6H83.64v2.864h4.72V62h-6.464v-9.968h6.496zm6.512 0c2.48 0 3.488 1.184 3.488 2.976 0 1.088-.752 2.288-1.904 2.656L98.824 62h-2.016l-2.064-4.128h-1.168V62h-1.824v-9.968zm8.8 0 3.168 7.136v-7.136h1.744v.176c-.112.128-.128.24-.128.592V62h-1.984l-3.376-7.536V62h-1.616v-9.968h2.192zm-38.656 1.184c-1.2 0-1.92 1.472-1.92 3.68 0 2.384.72 3.952 1.92 3.952s1.92-1.568 1.92-3.952c0-2.208-.72-3.68-1.92-3.68zm9.168.304h-.768v7.072h.608c1.888 0 2.768-1.232 2.768-3.456 0-2.256-.752-3.616-2.608-3.616zm20.8.096h-1.44v2.736h1.44c1.072 0 1.536-.544 1.536-1.344 0-.928-.464-1.392-1.536-1.392z" fill="#FFF"/></g></svg>